<svg xmlns="http://www.w3.org/2000/svg" xmlns:xlink="http://www.w3.org/1999/xlink" width="62.275" height="12.165" viewBox="0 0 62.275 12.165">
  <defs>
    <style>
      .cls-1 {
        fill: #294428;
      }

      .cls-2 {
        isolation: isolate;
      }

      .cls-3 {
        clip-path: url(#clip-path);
      }
    </style>
    <clipPath id="clip-path">
      <rect id="Rectangle_546" data-name="Rectangle 546" class="cls-1" width="62.275" height="12.165"/>
    </clipPath>
  </defs>
  <g id="Group_96" data-name="Group 96" class="cls-2">
    <g id="Group_95" data-name="Group 95" class="cls-3" transform="translate(0 0)">
      <path id="Path_31" data-name="Path 31" class="cls-1" d="M59.358,0H34.12C32.457,0,31.2.894,31.2,2.08V4.975c0,1.186,1.254,2.08,2.917,2.08h8.828a1.689,1.689,0,0,1,.972.247v2.67a1.687,1.687,0,0,1-.972.247H17.975A1.686,1.686,0,0,1,17,9.972V7.3a1.689,1.689,0,0,1,.972-.247H26.8c1.663,0,2.917-.894,2.917-2.08V2.08C29.72.894,28.466,0,26.8,0H15.719V1.945H26.8a1.686,1.686,0,0,1,.972.247v2.67a1.689,1.689,0,0,1-.972.247H17.975c-1.663,0-2.917.894-2.917,2.08v2.895c0,.046.005.09.009.135H2.917a1.687,1.687,0,0,1-.972-.247V7.3a1.69,1.69,0,0,1,.972-.247h8.828c1.663,0,2.917-.894,2.917-2.08V2.08C14.663.894,13.408,0,11.745,0H.972V1.945H11.745a1.687,1.687,0,0,1,.972.247v2.67a1.689,1.689,0,0,1-.972.247H2.917C1.254,5.11,0,6,0,7.19v2.895c0,1.186,1.254,2.08,2.917,2.08h40.03c1.663,0,2.917-.894,2.917-2.08V7.19c0-1.186-1.254-2.08-2.917-2.08H34.12a1.689,1.689,0,0,1-.972-.247V2.192a1.686,1.686,0,0,1,.972-.247H59.358a1.687,1.687,0,0,1,.972.247v7.78a1.687,1.687,0,0,1-.972.247H50.53a1.687,1.687,0,0,1-.972-.247V6.082H47.612v4c0,1.186,1.254,2.08,2.917,2.08h8.828c1.663,0,2.917-.894,2.917-2.08v-8C62.275.894,61.021,0,59.358,0" transform="translate(0 0)"/>
    </g>
  </g>
</svg>
