<?xml version="1.0" standalone="no"?>
<!DOCTYPE svg PUBLIC "-//W3C//DTD SVG 20010904//EN"
 "http://www.w3.org/TR/2001/REC-SVG-20010904/DTD/svg10.dtd">
<svg version="1.0" xmlns="http://www.w3.org/2000/svg"
 width="64.000000pt" height="64.000000pt" viewBox="0 0 64.000000 64.000000"
 preserveAspectRatio="xMidYMid meet">

<g transform="translate(0.000000,64.000000) scale(0.100000,-0.100000)"
fill="#000000" stroke="none">
<path d="M423 600 c-85 -51 -81 -179 6 -225 116 -60 239 71 171 182 -37 61
-116 81 -177 43z m137 -19 c14 -10 31 -36 39 -58 13 -36 12 -43 -5 -79 -27
-55 -81 -81 -134 -65 -72 21 -105 93 -73 159 33 68 112 88 173 43z"/>
<path d="M468 565 c-29 -38 -23 -64 18 -81 24 -10 34 -20 32 -32 -5 -24 -39
-28 -55 -6 -12 16 -13 17 -13 1 0 -10 7 -20 15 -23 8 -4 15 -12 15 -20 0 -20
9 -17 31 9 32 38 19 87 -22 87 -18 0 -33 26 -23 41 9 15 42 10 53 -8 8 -14 10
-15 10 -3 0 13 -32 60 -41 60 -1 0 -11 -11 -20 -25z"/>
<path d="M96 559 c-75 -18 -76 -20 -76 -221 l0 -178 32 -20 c24 -14 51 -20 95
-20 59 0 62 -1 65 -27 6 -48 48 -68 147 -68 66 0 93 4 114 18 26 17 27 20 27
117 l0 100 -32 20 c-24 14 -51 20 -95 20 l-63 0 0 93 c0 114 -6 134 -39 151
-36 19 -128 27 -175 15z m154 -22 c49 -17 51 -43 4 -63 -53 -22 -174 -16 -203
10 -11 10 -18 23 -15 28 21 34 145 49 214 25z m-137 -90 c45 -9 113 -2 161 18
32 14 14 -28 -19 -45 -38 -19 -150 -18 -190 1 -33 16 -51 58 -19 44 11 -4 40
-12 67 -18z m50 -57 c32 0 73 7 92 14 32 14 35 14 35 -2 0 -28 -40 -45 -115
-49 -76 -5 -137 16 -143 49 -3 14 1 15 35 2 21 -7 64 -13 96 -14z m-51 -51
c44 -10 117 -3 162 16 32 14 15 -28 -19 -44 -41 -20 -152 -18 -193 3 -34 17
-47 54 -15 41 10 -3 39 -11 65 -16z m69 -56 l65 4 -21 -23 c-18 -19 -33 -24
-71 -24 -55 0 -117 26 -122 52 -3 15 0 15 40 1 28 -10 65 -13 109 -10z m104
17 c-3 -5 -12 -10 -18 -10 -7 0 -6 4 3 10 19 12 23 12 15 0z m181 -35 l26 -17
-21 -21 c-44 -45 -241 -31 -241 17 0 11 21 26 60 40 31 11 149 -1 176 -19z
m-353 -34 c26 -5 59 -6 72 -3 20 3 25 0 25 -17 0 -19 -6 -21 -60 -21 -66 0
-120 21 -120 46 0 11 5 14 18 9 9 -4 39 -10 65 -14z m251 -51 c23 1 59 7 81
15 45 16 51 14 36 -13 -31 -58 -251 -47 -251 12 0 12 7 12 47 0 25 -8 65 -14
87 -14z m-291 5 c20 -8 59 -15 87 -15 44 0 50 -2 50 -21 0 -21 -4 -21 -65 -17
-67 6 -115 28 -115 53 0 18 -1 18 43 0z m278 -55 c36 0 80 5 98 11 41 14 51 4
23 -24 -48 -47 -242 -30 -242 22 0 18 2 19 28 5 15 -8 55 -14 93 -14z m47 -53
c31 5 65 13 75 18 21 9 23 -8 2 -29 -52 -52 -245 -37 -245 18 0 11 10 11 56
-2 44 -12 67 -13 112 -5z"/>
</g>
</svg>
